<?xml version="1.0" standalone="no"?>
<!DOCTYPE svg PUBLIC "-//W3C//DTD SVG 20010904//EN"
  "http://www.w3.org/TR/2001/REC-SVG-20010904/DTD/svg10.dtd">
<svg version="1.0" xmlns="http://www.w3.org/2000/svg"
     width="1198.000000pt" height="309.000000pt" viewBox="0 0 1198.000000 309.000000"
     preserveAspectRatio="xMidYMid meet">

  <g transform="translate(0.000000,309.000000) scale(0.100000,-0.100000)"
     fill="#fff" stroke="none">
    <path fill="#2aa29a" d="M1329 3066 c-2 -2 -3 -43 -1 -90 l3 -86 45 0 44 0 0 90 0 90 -43 0
c-24 0 -46 -2 -48 -4z"/>
    <path fill="#2aa29a" d="M167 1903 c-4 -3 -7 -26 -7 -50 l0 -43 90 0 90 0 0 50 0 50 -83 0
c-46 0 -87 -3 -90 -7z"/>
    <path fill="#2aa29a" d="M2410 1855 l0 -46 92 3 93 3 0 40 0 40 -92 3 -93 3 0 -46z"/>

    <path fill="#2aa29a" d="M1962 2877 c-16 -21 -82 -138 -82 -146 0 -4 16 -15 37 -25 29 -14 38
-15 45 -4 37 56 78 127 78 136 0 5 -15 19 -34 30 -26 15 -37 18 -44 9z"/>
    <path fill="#2aa29a" d="M740 2864 c-14 -10 -27 -19 -29 -20 -6 -5 84 -154 93 -154 5 0 23 9
42 20 l33 21 -43 72 c-23 40 -49 73 -57 75 -8 1 -25 -5 -39 -14z"/>
    <path fill="#2aa29a" d="M1257 2780 c-285 -35 -546 -223 -672 -483 -59 -124 -75 -190 -82
-332 -9 -207 38 -339 216 -613 163 -248 215 -351 252 -495 22 -87 26 -135 34
-450 5 -225 11 -244 88 -295 40 -27 41 -27 258 -30 241 -4 280 2 335 50 62 55
64 63 64 310 0 424 28 515 278 907 188 295 228 409 220 616 -7 141 -41 261
-111 384 -82 145 -243 290 -403 362 -135 61 -322 88 -477 69z m370 -123 c209
-75 365 -209 453 -392 63 -132 65 -125 -26 -125 -112 0 -114 -3 -114 -157 l0
-123 -50 0 -50 0 0 78 c0 47 -5 83 -12 90 -9 9 -91 12 -309 12 -359 0 -329 15
-329 -162 l0 -118 -187 0 -188 0 3 219 3 220 -23 15 c-13 8 -50 16 -85 17 -35
1 -63 5 -63 8 0 25 99 161 165 226 84 84 154 131 253 171 120 48 157 54 327
50 142 -3 168 -6 232 -29z m-907 -818 c0 -221 -3 -298 -11 -293 -18 11 -87
166 -105 235 -13 50 -15 92 -11 189 3 69 8 133 12 142 6 15 29 22 93 26 l22 2
0 -301z m1434 179 c11 -43 6 -172 -10 -237 -15 -63 -97 -251 -108 -251 -3 0
-6 115 -6 255 l0 255 59 0 c52 0 59 -2 65 -22z m-404 -525 c0 -431 -1 -461
-20 -510 -24 -63 -60 -237 -60 -290 0 -28 -3 -34 -10 -23 -5 8 -10 25 -10 38
0 22 -2 22 -134 22 -146 0 -146 0 -146 -61 0 -28 -2 -29 -45 -29 l-45 0 0 655
0 655 235 0 235 0 0 -457z m190 76 l0 -192 -42 -68 c-24 -37 -46 -68 -50 -69
-5 0 -8 117 -8 260 l0 260 50 0 50 0 0 -191z m-750 56 l0 -45 -188 0 -188 0 2
43 c2 23 3 43 3 45 1 1 84 2 186 2 l185 0 0 -45z m0 -190 l0 -45 -187 2 -188
3 2 40 c1 22 2 41 2 43 1 1 84 2 186 2 l185 0 0 -45z m0 -190 l0 -45 -135 0
-135 0 -25 40 c-14 22 -25 42 -25 45 0 3 72 5 160 5 l160 0 0 -45z m0 -185 l0
-50 -88 0 -88 0 -21 44 c-12 24 -19 47 -16 50 4 3 53 6 110 6 l103 0 0 -50z
m0 -185 l0 -45 -60 0 c-65 0 -63 -1 -84 68 -7 21 -6 22 68 22 l76 0 0 -45z m0
-190 l0 -45 -49 0 c-46 0 -49 1 -55 31 -11 58 -10 59 49 59 l55 0 0 -45z m468
-187 l3 -48 -279 0 -280 0 -4 46 c-2 25 -1 47 1 50 3 2 129 3 280 2 l276 -3 3
-47z m2 -193 c0 -68 -21 -112 -58 -122 -15 -5 -123 -8 -239 -8 l-213 0 -24 25
c-20 20 -25 36 -26 85 -1 33 -1 63 -1 68 1 4 127 7 281 7 l280 0 0 -55z"/>
    <path fill="#2aa29a" d="M1380 1765 l0 -95 140 0 141 0 -3 93 -3 92 -137 3 -138 3 0 -96z"/>
    <path fill="#2aa29a" d="M1377 1574 c-9 -9 -9 -76 -1 -138 l7 -46 139 0 139 0 -3 93 -3 92
-136 3 c-74 1 -138 -1 -142 -4z"/>
    <path fill="#2aa29a" d="M1380 1205 l0 -95 140 0 140 0 0 89 0 88 -37 7 c-21 3 -84 6 -140 6
l-103 0 0 -95z"/>
    <path fill="#2aa29a" d="M1413 1012 l-33 -3 0 -90 0 -89 135 0 135 0 0 90 0 90 -77 1 c-43 1
-89 2 -103 3 -14 1 -40 0 -57 -2z"/>
    <path fill="#2aa29a" d="M321 2444 c-12 -20 -19 -39 -16 -44 5 -7 142 -90 150 -90 5 0 46 72
43 74 -4 3 -106 65 -135 82 -20 12 -23 11 -42 -22z"/>
    <path fill="#2aa29a" d="M2330 2430 c-36 -22 -66 -43 -67 -47 -2 -5 6 -23 17 -41 l20 -33 48
27 c26 15 61 36 79 46 l32 19 -21 34 c-11 19 -25 35 -31 35 -7 -1 -41 -19 -77
-40z"/>
    <path d="M8913 2443 c-272 -3 -353 -6 -353 -16 0 -6 -7 -73 -15 -147 -8 -74
-15 -148 -15 -165 l0 -30 176 3 175 3 -5 -43 c-12 -87 -126 -1219 -126 -1250
l0 -31 142 7 c78 4 143 8 144 9 0 1 29 279 63 617 34 338 65 632 68 652 l5 38
177 2 176 3 17 145 c9 80 17 160 17 178 l1 32 -147 -2 c-82 -2 -307 -4 -500
-5z"/>
    <path d="M3500 2406 c-78 -21 -142 -59 -205 -121 -107 -107 -155 -236 -155
-419 0 -157 32 -256 113 -343 54 -59 98 -82 250 -133 144 -49 179 -73 197
-138 19 -74 -14 -142 -90 -183 -37 -19 -164 -17 -230 5 -82 28 -149 63 -202
107 l-46 39 -20 -68 c-12 -37 -33 -112 -49 -166 l-27 -99 44 -39 c55 -47 184
-113 265 -133 177 -45 370 3 490 122 165 162 206 496 85 697 -60 99 -104 128
-313 201 -123 43 -162 70 -178 125 -23 78 22 166 99 191 106 35 266 -7 358
-93 18 -17 34 -26 37 -21 2 4 26 73 52 153 l48 144 -52 47 c-121 112 -323 166
-471 125z"/>
    <path d="M11384 2293 l-50 -4 -17 -161 c-9 -88 -18 -162 -20 -165 -3 -2 -36
-7 -74 -10 l-70 -6 -14 -148 -14 -149 73 0 74 0 -6 -47 c-43 -351 -45 -535 -7
-634 28 -74 92 -146 156 -175 68 -32 175 -33 246 -3 l49 21 0 98 c0 53 -3 125
-6 158 -6 55 -9 60 -25 52 -10 -6 -37 -10 -61 -10 -55 0 -94 36 -103 95 -6 34
9 226 31 398 l6 47 112 0 113 0 12 128 c6 70 14 139 17 155 l6 27 -117 0 -116
0 6 43 c12 88 25 223 25 260 l0 37 -87 -2 c-49 -1 -111 -3 -139 -5z"/>
    <path d="M7534 2263 l-50 -4 -17 -161 c-9 -88 -18 -162 -20 -165 -3 -2 -36 -7
-74 -10 l-70 -6 -14 -148 -14 -149 73 0 74 0 -6 -47 c-43 -351 -45 -535 -7
-634 28 -74 92 -146 156 -175 68 -32 175 -33 246 -3 l49 21 0 98 c0 53 -3 125
-6 158 -6 55 -9 60 -25 52 -10 -6 -37 -10 -61 -10 -55 0 -94 36 -103 95 -6 34
9 226 31 398 l6 47 112 0 113 0 12 128 c6 70 14 139 17 155 l6 27 -117 0 -116
0 6 43 c12 88 25 223 25 260 l0 37 -87 -2 c-49 -1 -111 -3 -139 -5z"/>
    <path d="M9790 1967 c-194 -43 -338 -257 -370 -549 -33 -294 63 -534 249 -625
51 -25 66 -28 167 -28 107 0 112 1 185 37 40 20 88 52 106 70 l31 33 -23 107
c-12 58 -25 118 -29 132 l-6 26 -46 -35 c-77 -59 -196 -82 -267 -51 -61 26
-107 98 -107 167 l0 29 259 0 260 0 7 57 c10 80 -2 277 -21 348 -59 215 -210
323 -395 282z m147 -296 c33 -33 53 -89 53 -150 l0 -41 -151 0 c-138 0 -150 1
-145 18 3 9 8 31 12 47 11 49 41 101 74 129 46 38 117 37 157 -3z"/>
    <path d="M10670 1969 c-188 -31 -310 -194 -310 -415 0 -125 45 -223 124 -269
23 -13 88 -35 146 -50 137 -34 165 -67 125 -145 -40 -76 -220 -58 -343 36 -18
14 -35 24 -38 21 -3 -2 -21 -62 -41 -132 l-37 -128 30 -24 c43 -36 140 -81
203 -94 30 -6 96 -9 146 -7 109 5 182 35 240 100 136 150 138 450 3 563 -40
34 -61 42 -182 71 -55 14 -105 29 -113 35 -23 19 -16 94 11 126 23 27 29 28
108 28 87 -1 143 -20 196 -68 29 -27 31 -25 71 120 l33 115 -23 24 c-35 37
-136 82 -209 94 -36 5 -69 9 -75 9 -5 -1 -35 -5 -65 -10z"/>
    <path d="M7093 1940 c-78 -18 -142 -74 -192 -165 l-22 -40 7 93 6 92 -130 0
c-72 0 -133 -4 -137 -9 -3 -5 -30 -247 -60 -538 -30 -290 -57 -549 -61 -575
l-6 -48 146 0 c129 0 146 2 146 16 0 64 63 612 76 663 12 45 26 73 50 96 34
34 52 40 205 65 l66 12 6 111 c4 62 7 140 7 175 l0 62 -37 -1 c-21 -1 -52 -4
-70 -9z"/>
    <path d="M5985 1934 c-11 -2 -45 -9 -75 -15 -73 -15 -167 -58 -211 -97 l-36
-32 24 -122 c13 -68 26 -129 28 -136 3 -9 21 -2 57 23 29 19 82 44 117 55 150
47 231 5 231 -120 l0 -50 -82 0 c-252 -1 -397 -71 -442 -212 -32 -104 -19
-266 31 -361 23 -45 83 -107 124 -128 45 -22 125 -25 172 -6 36 15 97 79 122
126 17 35 25 40 20 14 -2 -10 -6 -42 -9 -70 l-5 -53 129 0 c126 0 130 1 134
23 13 59 66 642 66 712 -1 216 -87 387 -216 428 -53 17 -147 28 -179 21z m108
-736 c-13 -118 -66 -195 -139 -205 -30 -4 -45 0 -66 17 -52 40 -59 139 -14
189 31 34 51 40 143 40 l81 1 -5 -42z"/>
    <path d="M4662 1916 c-59 -19 -109 -60 -145 -118 -16 -26 -31 -48 -33 -48 -4
0 3 69 11 123 l5 27 -136 0 c-99 0 -136 -3 -139 -12 -2 -7 -29 -258 -59 -558
-31 -300 -58 -557 -61 -573 l-5 -28 143 3 142 3 31 310 c44 430 51 463 112
528 35 37 94 38 118 1 28 -42 27 -105 -10 -458 -20 -186 -36 -347 -36 -357 0
-18 10 -19 140 -19 117 0 140 2 140 15 0 38 62 617 71 665 16 83 53 154 92
175 68 36 117 -8 117 -107 0 -24 -16 -198 -35 -388 -19 -190 -35 -348 -35
-352 0 -5 63 -8 139 -8 l139 0 6 48 c6 43 55 545 71 717 13 144 -26 304 -91
369 -55 54 -138 71 -226 44 -51 -15 -128 -84 -159 -142 -13 -25 -27 -46 -30
-46 -4 0 -10 12 -14 28 -11 44 -64 120 -100 142 -43 26 -110 33 -163 16z"/>
  </g>
</svg>
