<?xml version="1.0" standalone="no"?>
<!DOCTYPE svg PUBLIC "-//W3C//DTD SVG 20010904//EN"
 "http://www.w3.org/TR/2001/REC-SVG-20010904/DTD/svg10.dtd">
<svg version="1.0" xmlns="http://www.w3.org/2000/svg"
 width="900.000000pt" height="980.000000pt" viewBox="0 0 900.000000 980.000000"
 preserveAspectRatio="xMidYMid meet">

<g transform="translate(0.000000,980.000000) scale(0.100000,-0.100000)"
fill="#2aa29a" stroke="none">
<path d="M4323 9663 c4 -75 7 -210 7 -300 l0 -163 155 0 155 0 0 118 c0 66 3
201 7 300 l6 182 -168 0 -168 0 6 -137z"/>
<path d="M6377 9128 c-30 -51 -91 -158 -137 -238 -46 -80 -92 -157 -102 -172
l-18 -26 125 -72 c68 -39 129 -68 135 -65 16 10 99 136 177 270 129 221 134
238 81 278 -34 24 -193 117 -202 117 -3 0 -29 -42 -59 -92z"/>
<path d="M2512 9195 c-18 -8 -76 -39 -127 -70 l-94 -55 63 -108 c34 -59 102
-176 151 -259 49 -84 93 -153 97 -153 12 0 123 56 199 102 l67 39 -152 259
c-83 143 -155 260 -161 259 -5 0 -25 -6 -43 -14z"/>
<path d="M4225 8869 c-477 -26 -1006 -220 -1432 -526 -578 -414 -986 -1033
-1126 -1708 -46 -221 -52 -287 -52 -565 0 -283 11 -385 60 -587 91 -378 246
-681 700 -1373 570 -868 723 -1196 839 -1795 32 -165 42 -393 56 -1245 l11
-635 37 -68 c97 -180 262 -315 428 -350 84 -17 1413 -17 1499 1 167 34 344
182 435 362 l28 55 6 295 c3 162 8 471 11 685 10 638 24 825 85 1071 117 480
283 836 672 1443 502 781 550 862 653 1094 103 231 179 480 207 672 17 121 17
587 0 725 -59 473 -265 959 -575 1359 -93 120 -334 367 -447 458 -191 154
-448 309 -672 407 -446 194 -847 257 -1423 225z m580 -309 c278 -27 578 -117
860 -259 506 -256 891 -644 1135 -1146 71 -146 138 -307 155 -377 l7 -28 -259
0 -259 0 -53 -54 -54 -55 -1 -403 -1 -403 -152 -3 -153 -3 -1 203 c-1 264 -5
293 -53 351 l-38 47 -982 0 -982 0 -39 -47 c-52 -62 -53 -75 -54 -515 l-1
-358 -612 0 -613 0 3 715 2 715 -41 45 c-26 28 -55 49 -78 54 -20 6 -121 15
-225 20 -104 6 -191 13 -194 15 -7 8 115 234 182 336 419 640 1160 1091 1891
1153 97 9 510 6 610 -3z m-2457 -2782 c-2 -651 -7 -969 -14 -981 -10 -17 -14
-14 -43 30 -96 144 -259 510 -306 685 -89 332 -94 689 -15 1102 11 54 22 102
26 105 7 7 142 17 268 19 l88 2 -4 -962z m4686 607 c6 -22 10 -175 11 -340 0
-251 -3 -313 -18 -382 -37 -175 -99 -357 -184 -548 -44 -98 -191 -375 -199
-375 -2 0 -4 380 -4 845 l0 845 192 -2 192 -3 10 -40z m-1314 -1738 l0 -1474
-49 -140 c-120 -339 -187 -643 -227 -1028 -9 -88 -18 -162 -20 -164 -2 -2 -5
20 -5 50 -1 30 -4 99 -8 154 l-6 100 -456 3 -456 2 -7 -31 c-3 -17 -6 -89 -6
-160 l0 -129 -145 0 -145 0 0 2145 0 2145 765 0 765 0 0 -1473z m616 233 l1
-625 -37 -60 c-20 -33 -89 -140 -154 -239 l-116 -178 0 866 0 867 153 -3 152
-3 1 -625z m-2456 175 l0 -145 -611 2 -610 3 -2 143 -2 142 613 0 612 0 0
-145z m0 -610 l0 -145 -611 2 -610 3 0 138 c0 75 1 139 1 142 0 3 275 5 610 5
l610 0 0 -145z m0 -610 l0 -145 -447 2 -447 3 -73 125 c-40 69 -73 131 -73
137 0 14 97 17 668 21 l372 2 0 -145z m0 -627 l0 -153 -286 3 -286 3 -59 125
c-32 68 -62 136 -65 149 l-6 25 351 0 351 0 0 -152z m0 -603 l0 -145 -198 0
-199 0 -39 140 c-26 89 -36 141 -30 144 6 2 113 5 239 5 l227 1 0 -145z m0
-620 l0 -155 -159 0 -159 0 -6 33 c-3 17 -8 87 -12 155 l-7 122 171 0 172 0 0
-155z m1540 -615 l0 -150 -923 0 -923 0 0 150 1 150 922 0 923 0 0 -150z m-4
-626 c-3 -91 -11 -187 -17 -214 -21 -98 -102 -184 -191 -201 -63 -12 -1374
-11 -1427 2 -95 21 -169 101 -191 204 -6 28 -12 123 -14 213 l-3 162 925 0
925 0 -7 -166z"/>
<path d="M4500 5515 l0 -315 455 0 455 0 0 315 0 315 -455 0 -455 0 0 -315z"/>
<path d="M4482 4606 c1 -167 5 -306 8 -309 3 -2 211 -7 463 -10 l457 -6 0 315
0 314 -466 0 -466 0 4 -304z"/>
<path d="M4500 3674 l0 -317 167 6 c91 4 298 7 460 7 l293 0 0 309 0 310 -460
1 -460 1 0 -317z"/>
<path d="M4510 3061 l-25 -7 -3 -229 c-2 -127 0 -263 3 -302 l7 -73 454 0 454
0 0 310 0 310 -432 -1 c-238 -1 -444 -4 -458 -8z"/>
<path d="M1063 7818 c-15 -24 -46 -80 -70 -125 l-44 -82 38 -24 c61 -38 321
-190 406 -237 47 -25 82 -39 87 -34 14 14 140 226 140 235 0 15 -491 309 -517
309 -7 0 -25 -19 -40 -42z"/>
<path d="M7725 7774 c-189 -109 -348 -209 -352 -221 -6 -18 134 -238 151 -237
16 2 365 198 464 261 l52 34 -21 42 c-43 86 -121 207 -132 207 -7 0 -80 -39
-162 -86z"/>
<path d="M510 5825 l0 -165 305 0 305 0 0 165 0 165 -305 0 -305 0 0 -165z"/>
<path d="M7870 5825 l0 -168 173 6 c94 4 234 7 310 7 l137 0 0 155 0 155 -212
0 c-117 0 -257 3 -310 7 l-98 6 0 -168z"/>
</g>
</svg>
